<?xml version="1.0" encoding="UTF-8"?>
<svg version="1.1" xmlns="http://www.w3.org/2000/svg" width="1024" height="1024">
<path d="M0 0 C0.93932877 -0.00705963 1.87865753 -0.01411926 2.84645081 -0.02139282 C42.38430162 -0.2509902 42.38430162 -0.2509902 60.83984375 3.203125 C61.96438965 3.41243652 63.08893555 3.62174805 64.24755859 3.83740234 C96.13836446 9.94249768 126.61717687 19.88781676 154.83984375 36.203125 C155.5148291 36.59290527 156.18981445 36.98268555 156.88525391 37.38427734 C172.2691636 46.39287311 186.87742907 56.95946754 199.83984375 69.203125 C201.12712293 70.31240365 202.41872659 71.41668591 203.71484375 72.515625 C212.98270228 80.62266084 221.31778853 89.45835898 228.83984375 99.203125 C229.29858887 99.79609375 229.75733398 100.3890625 230.22998047 101 C247.21910028 123.04720593 261.1833097 146.42696201 271.83984375 172.203125 C272.13020508 172.88375 272.42056641 173.564375 272.71972656 174.265625 C282.61828877 197.52008927 288.79169002 222.63535723 292.90283203 247.52929688 C293.16762863 249.12928528 293.16762863 249.12928528 293.43777466 250.76159668 C293.57045746 251.56730103 293.70314026 252.37300537 293.83984375 253.203125 C294.63775046 253.20220321 295.43565718 253.20128141 296.25774288 253.20033169 C315.64399379 253.17827801 335.0302422 253.16171421 354.41650295 253.15131283 C363.79142646 253.14614952 373.16634162 253.13910616 382.54125977 253.12768555 C390.70938897 253.11773977 398.87751212 253.11127183 407.0456472 253.10903651 C411.3733543 253.10772922 415.70104409 253.10464223 420.02874565 253.09739494 C424.09734103 253.0906364 428.16591187 253.0885077 432.23451233 253.09001732 C433.73215938 253.08974092 435.2298072 253.08773481 436.72744942 253.08391953 C438.76335693 253.07898494 440.79927745 253.08072682 442.83518982 253.08287048 C443.97729133 253.08194869 445.11939283 253.0810269 446.29610348 253.08007717 C448.83984375 253.203125 448.83984375 253.203125 449.83984375 254.203125 C449.83984375 279.283125 449.83984375 304.363125 449.83984375 330.203125 C399.67984375 330.203125 349.51984375 330.203125 297.83984375 330.203125 C297.83984375 337.133125 297.83984375 344.063125 297.83984375 351.203125 C297.40347571 356.81943837 296.9066283 362.37078878 296.21484375 367.953125 C296.12747955 368.68481903 296.04011536 369.41651306 295.95010376 370.17037964 C290.62177609 414.58859092 279.66379314 456.92050557 259.83984375 497.203125 C259.50243164 497.89180664 259.16501953 498.58048828 258.81738281 499.29003906 C250.68394441 515.67479179 240.10687916 530.84509688 228.83984375 545.203125 C227.72029297 546.64365234 227.72029297 546.64365234 226.578125 548.11328125 C181.23299552 605.02519052 115.2150789 637.20037541 43.59443665 645.46214294 C37.68280989 646.10321741 31.83486097 646.38882838 25.890625 646.44140625 C24.96747498 646.45115479 24.04432495 646.46090332 23.09320068 646.47094727 C1.32040241 646.65328756 -19.69120808 646.09697149 -41.16015625 642.203125 C-42.18463867 642.02120605 -43.20912109 641.83928711 -44.26464844 641.65185547 C-68.26178948 637.25408265 -91.10511216 629.55157036 -113.16015625 619.203125 C-113.90974609 618.85781738 -114.65933594 618.51250977 -115.43164062 618.15673828 C-149.28365112 602.48653342 -181.83507725 575.99803195 -204.16015625 546.203125 C-205.12930192 544.94981941 -206.09943376 543.69727604 -207.0703125 542.4453125 C-212.85516338 534.92807572 -218.28184065 527.32125428 -223.04833984 519.10595703 C-224.32173806 516.9265838 -225.62676124 514.76731222 -226.9296875 512.60546875 C-258.95839048 458.77974344 -274.16015625 392.58456344 -274.16015625 330.203125 C-324.32015625 330.203125 -374.48015625 330.203125 -426.16015625 330.203125 C-426.16015625 305.123125 -426.16015625 280.043125 -426.16015625 254.203125 C-423.38028149 252.81318762 -421.1466873 253.09821484 -418.0352478 253.12083435 C-416.7283046 253.12787384 -415.42136139 253.13491333 -414.07481384 253.14216614 C-412.61807167 253.15514954 -411.16133037 253.16822959 -409.70458984 253.18139648 C-408.17722349 253.19153604 -406.64985412 253.20123006 -405.1224823 253.21051025 C-400.96773319 253.23702367 -396.81305389 253.26979651 -392.65835905 253.30366015 C-388.31951554 253.33797115 -383.98063456 253.36657139 -379.64175415 253.39576721 C-371.42174205 253.45195171 -363.20177686 253.51330133 -354.98181593 253.57648855 C-345.62526414 253.64816266 -336.26867473 253.71410624 -326.91207767 253.77955902 C-307.66138822 253.91435343 -288.41075808 254.05637502 -269.16015625 254.203125 C-268.96108673 252.91567383 -268.76201721 251.62822266 -268.55691528 250.30175781 C-268.28950433 248.58657358 -268.02199203 246.87140514 -267.75439453 245.15625 C-267.62394241 244.31078613 -267.4934903 243.46532227 -267.35908508 242.59423828 C-266.22969365 235.37728974 -264.77426904 228.3005853 -263.03515625 221.203125 C-262.73512695 219.97819336 -262.43509766 218.75326172 -262.12597656 217.49121094 C-251.76490654 176.35322141 -233.98936679 136.30583253 -207.16015625 103.203125 C-206.07154297 101.82640625 -206.07154297 101.82640625 -204.9609375 100.421875 C-174.11981175 61.88431033 -132.82311744 32.4004531 -86.16015625 16.203125 C-85.4547168 15.9570752 -84.74927734 15.71102539 -84.02246094 15.45751953 C-63.31536872 8.33742988 -41.8993381 3.70982453 -20.16015625 1.203125 C-19.40610001 1.11579605 -18.65204376 1.0284671 -17.87513733 0.93849182 C-11.90333156 0.29217553 -6.00444079 0.03019199 0 0 Z M-68.16015625 57.203125 C-68.70148193 57.72253662 -69.24280762 58.24194824 -69.80053711 58.77709961 C-102.3595142 90.55419923 -117.77691023 138.23171686 -128.16015625 181.203125 C-128.40604492 182.21729492 -128.65193359 183.23146484 -128.90527344 184.27636719 C-147.15390347 261.25382653 -146.24278194 344.36262243 -89.03125 559.05273438 C-71.35359055 587.3956976 -46.58874119 610.23775411 -13.91015625 619.078125 C13.58005146 625.04588718 43.47446057 622.11048026 67.83984375 607.203125 C88.70259005 593.56601278 104.27678897 575.56274812 116.83984375 554.203125 C117.54416703 553.04811378 118.24859627 551.89316716 118.953125 550.73828125 C149.96450559 498.8697504 159.98960611 433.41249215 164.83984375 374.203125 C164.94570801 372.93887695 165.05157227 371.67462891 165.16064453 370.37207031 C168.08896053 334.09065274 167.86550801 297.46848111 164.83984375 261.203125 C164.7433252 259.98061035 164.64680664 258.7580957 164.54736328 257.49853516 C158.86823805 187.17623076 142.30000576 111.85798867 93.83984375 58.203125 C93.24042969 57.51992188 92.64101563 56.83671875 92.0234375 56.1328125 C86.92732255 50.64075879 80.6056622 46.55155083 74.46142578 42.32958984 C73.11065687 41.39125082 71.78266791 40.42022467 70.4609375 39.44140625 C28.27877473 8.94538345 -33.2445118 23.43413554 -68.16015625 57.203125 Z " fill="#020957" transform="translate(500.16015625,219.796875)"/>
<path d="M0 0 C2.94365074 0.01072102 5.88668979 0.00002968 8.83032227 -0.01269531 C57.8518403 -0.05232922 107.02453555 11.67439892 151.01196289 33.26074219 C151.91188965 33.70111816 152.81181641 34.14149414 153.73901367 34.59521484 C173.32390741 44.27820186 192.07017509 55.41431589 209.01196289 69.26074219 C209.9259082 69.99550781 210.83985352 70.73027344 211.78149414 71.48730469 C213.61360333 72.97081513 215.43647016 74.46580743 217.25024414 75.97167969 C219.06484934 77.47572304 220.89532458 78.96086004 222.74243164 80.42480469 C230.71456957 86.89097733 237.99371125 94.02600968 245.26196289 101.26074219 C245.77552338 101.76912628 246.28908386 102.27751038 246.81820679 102.80130005 C253.68888391 109.6173794 259.98925124 116.66966354 266.01196289 124.26074219 C266.98837916 125.43469755 267.96827264 126.60577983 268.95336914 127.77246094 C316.01196289 184.37329577 316.01196289 184.37329577 316.01196289 209.26074219 C309.12567544 209.46369458 302.24015912 209.60372312 295.3515625 209.70019531 C293.00882145 209.74041126 290.66628098 209.79499406 288.32421875 209.86425781 C284.95530776 209.96138987 281.58905037 210.00668769 278.21899414 210.04199219 C277.17298538 210.08328247 276.12697662 210.12457275 275.04927063 210.16711426 C267.93213617 210.17149968 267.93213617 210.17149968 265.26130676 207.52799988 C263.964131 205.48245291 262.95539076 203.48836407 262.01196289 201.26074219 C261.50793945 200.308125 261.00391602 199.35550781 260.48461914 198.37402344 C260.01926758 197.44976562 259.55391602 196.52550781 259.07446289 195.57324219 C251.26794217 180.93175464 241.49484989 167.10643864 231.01196289 154.26074219 C230.36855957 153.46506836 230.36855957 153.46506836 229.7121582 152.65332031 C217.95983066 138.20331874 204.79145797 124.62038646 190.01196289 113.26074219 C188.47022643 111.98999353 186.92856116 110.71915849 185.38696289 109.44824219 C124.76029879 61.38471727 45.72191099 39.69633032 -30.98803711 48.26074219 C-58.58154087 51.80982765 -85.27537849 58.65460871 -110.98803711 69.26074219 C-111.87072266 69.62425781 -112.7534082 69.98777344 -113.6628418 70.36230469 C-126.36879028 75.67196824 -138.26645668 82.0490115 -149.98803711 89.26074219 C-150.71619629 89.70675781 -151.44435547 90.15277344 -152.19458008 90.61230469 C-167.1484469 99.84167072 -181.13969292 110.26003181 -193.98803711 122.26074219 C-195.6324457 123.72068187 -197.27831379 125.17897906 -198.92553711 126.63574219 C-208.08394341 134.90414662 -216.32856043 143.59491165 -223.98803711 153.26074219 C-224.93257023 154.40569165 -225.87929751 155.54883356 -226.82788086 156.69042969 C-237.34522839 169.43391495 -245.99472532 183.09797746 -253.91772461 197.57714844 C-254.24035278 198.13673248 -254.56298096 198.69631653 -254.89538574 199.27285767 C-256.01994371 201.24525779 -256.01994371 201.24525779 -256.88996887 203.34300232 C-258.0446283 205.70301455 -259.11024796 207.41205976 -260.98803711 209.26074219 C-264.72761283 210.38008474 -268.32051219 210.19493691 -272.19506836 210.04199219 C-273.27559982 210.03067261 -274.35613129 210.01935303 -275.46940613 210.00769043 C-278.91493297 209.96296537 -282.35627209 209.8626023 -285.80053711 209.76074219 C-288.13836756 209.72061054 -290.47626336 209.68410923 -292.81420898 209.65136719 C-298.54024308 209.56324365 -304.263841 209.42944547 -309.98803711 209.26074219 C-305.20646307 184.20802906 -286.04220162 158.33115192 -270.98803711 138.26074219 C-270.32747314 137.36911377 -270.32747314 137.36911377 -269.65356445 136.45947266 C-264.82859291 129.95843944 -259.78787755 123.71998709 -254.28881836 117.77246094 C-252.42686451 115.73980164 -250.62454082 113.67834138 -248.82788086 111.58886719 C-244.50054187 106.63184453 -239.89169927 101.97250414 -235.23803711 97.32324219 C-234.34987305 96.43588379 -233.46170898 95.54852539 -232.54663086 94.63427734 C-226.61285551 88.75588679 -220.59104849 83.37443081 -213.98803711 78.26074219 C-212.11014592 76.65996101 -210.23531994 75.05557933 -208.36303711 73.44824219 C-180.44971441 50.22894423 -147.71733891 32.44247012 -113.64477539 20.22265625 C-111.49167333 19.44309164 -109.36019172 18.63363737 -107.23413086 17.78417969 C-73.8235363 4.82137078 -35.70036241 -0.15399576 0 0 Z " fill="#050B58" transform="translate(508.988037109375,156.7392578125)"/>
<path d="M0 0 C4.62 0 9.24 0 14 0 C14 55.77 14 111.54 14 169 C49.36285347 168.63150581 49.36285347 168.63150581 84.72558594 168.25170898 C91.56298828 168.18371582 91.56298828 168.18371582 94.76324463 168.1532135 C96.99975537 168.13091196 99.23624618 168.10655506 101.47271729 168.08058167 C104.85906124 168.04165226 108.24541101 168.00923203 111.63183594 167.97827148 C112.62922665 167.96530501 113.62661736 167.95233854 114.65423203 167.93897915 C115.56656727 167.93196012 116.47890251 167.92494108 117.41888428 167.91770935 C118.60799723 167.90526515 118.60799723 167.90526515 119.82113266 167.89256954 C122.00637594 168.00031437 123.90267235 168.3943579 126 169 C128.86346453 194.52240458 129 219.13933368 129 245 C91.05 245 53.1 245 14 245 C14 320.9 14 396.8 14 475 C9.38 475 4.76 475 0 475 C-2.10712898 472.89287102 -1.15945203 468.18039061 -1.16494751 465.26867676 C-1.17341282 463.87800389 -1.17341282 463.87800389 -1.18204916 462.45923662 C-1.199862 459.3276475 -1.21049663 456.19607408 -1.22119141 453.06445312 C-1.23239931 450.82950126 -1.2440312 448.59455149 -1.25605774 446.35960388 C-1.28747379 440.27096233 -1.31254791 434.18230952 -1.3362546 428.09363365 C-1.36177743 421.73725426 -1.39213092 415.38089764 -1.42172241 409.02453613 C-1.4737464 397.66302401 -1.52072934 386.30149821 -1.5657609 374.93995696 C-1.60677388 364.62840346 -1.65303351 354.31688435 -1.703125 344.00537109 C-1.76122442 332.04489582 -1.81596257 320.08441263 -1.86572587 308.12389898 C-1.89209485 301.78746709 -1.91984457 295.45104914 -1.9510994 289.11463928 C-1.98025969 283.15908552 -2.00455077 277.20353182 -2.02499962 271.24794197 C-2.03333899 269.05527584 -2.04341006 266.86261556 -2.05528831 264.66996574 C-2.07115462 261.69041371 -2.0809095 258.71090495 -2.08901978 255.73132324 C-2.09514145 254.85167294 -2.10126312 253.97202264 -2.10757029 253.06571627 C-2.1098058 251.04349416 -2.06078368 249.02130962 -2 247 C-1.67 246.67 -1.34 246.34 -1 246 C-38.29 245.67 -75.58 245.34 -114 245 C-114.68022561 238.87796949 -115.11578887 233.26568195 -114.94921875 227.1796875 C-114.9310762 226.36583588 -114.91293365 225.55198425 -114.89424133 224.71347046 C-114.83283241 222.10039558 -114.76111232 219.48775766 -114.6875 216.875 C-114.66421631 215.98615112 -114.64093262 215.09730225 -114.61694336 214.18151855 C-113.70205925 179.80823699 -113.70205925 179.80823699 -111 169 C-74.7 168.67 -38.4 168.34 -1 168 C-1.01160156 156.04007813 -1.02320313 144.08015625 -1.03515625 131.7578125 C-1.04026299 124.2018227 -1.04511803 116.64583415 -1.04882812 109.08984375 C-1.05477013 97.08446833 -1.06176908 85.07909991 -1.07543945 73.07373047 C-1.08538917 64.33170278 -1.09185412 55.58968074 -1.09408849 46.84764755 C-1.09539511 42.21641901 -1.09847788 37.58520667 -1.10573006 32.95398331 C-1.1124948 28.59893447 -1.11461603 24.24390857 -1.11310768 19.88885498 C-1.1133838 18.28681183 -1.11538624 16.68476796 -1.11920547 15.08272934 C-1.1241498 12.90262796 -1.12299553 10.72261421 -1.12025452 8.54251099 C-1.12117631 7.32021349 -1.1220981 6.09791599 -1.12304783 4.83857918 C-1 2 -1 2 0 0 Z " fill="#010755" transform="translate(505,305)"/>
<path d="M0 0 C0.33 0 0.66 0 1 0 C3.28731506 22.77277638 3 44.96917878 3 68 C-34.95 68 -72.9 68 -112 68 C-112 143.9 -112 219.8 -112 298 C-116.62 298 -121.24 298 -126 298 C-128.10712898 295.89287102 -127.15945203 291.18039061 -127.16494751 288.26867676 C-127.17341282 286.87800389 -127.17341282 286.87800389 -127.18204916 285.45923662 C-127.199862 282.3276475 -127.21049663 279.19607408 -127.22119141 276.06445312 C-127.23239931 273.82950126 -127.2440312 271.59455149 -127.25605774 269.35960388 C-127.28747379 263.27096233 -127.31254791 257.18230952 -127.3362546 251.09363365 C-127.36177743 244.73725426 -127.39213092 238.38089764 -127.42172241 232.02453613 C-127.4737464 220.66302401 -127.52072934 209.30149821 -127.5657609 197.93995696 C-127.60677388 187.62840346 -127.65303351 177.31688435 -127.703125 167.00537109 C-127.76122442 155.04489582 -127.81596257 143.08441263 -127.86572587 131.12389898 C-127.89209485 124.78746709 -127.91984457 118.45104914 -127.9510994 112.11463928 C-127.98025969 106.15908552 -128.00455077 100.20353182 -128.02499962 94.24794197 C-128.03333899 92.05527584 -128.04341006 89.86261556 -128.05528831 87.66996574 C-128.07115462 84.69041371 -128.0809095 81.71090495 -128.08901978 78.73132324 C-128.09514145 77.85167294 -128.10126312 76.97202264 -128.10757029 76.06571627 C-128.1098058 74.04349416 -128.06078368 72.02130962 -128 70 C-127.67 69.67 -127.34 69.34 -127 69 C-164.29 68.67 -201.58 68.34 -240 68 C-241.125 57.875 -241.125 57.875 -241.02172852 54.30639648 C-241.00163223 53.50624619 -240.98153595 52.70609589 -240.96083069 51.88169861 C-240.93379562 51.05319901 -240.90676056 50.2246994 -240.87890625 49.37109375 C-240.84348976 48.05843285 -240.84348976 48.05843285 -240.80735779 46.71925354 C-240.73154963 43.95846881 -240.64717574 41.19802551 -240.5625 38.4375 C-240.50919607 36.5514483 -240.45645645 34.66538057 -240.40429688 32.77929688 C-240.27604856 28.18598688 -240.14012428 23.59296242 -240 19 C-239.67 19 -239.34 19 -239 19 C-239 34.84 -239 50.68 -239 67 C-159.47 67 -79.94 67 2 67 C1.34 49.18 0.68 31.36 0 13 C0 8.71 0 4.42 0 0 Z " fill="#B89C56" transform="translate(631,482)"/>
<path d="M0 0 C4.62 0 9.24 0 14 0 C14 55.77 14 111.54 14 169 C9.38 169 4.76 169 0 169 C-1.85600757 167.14399243 -1.12621794 164.07016935 -1.12698364 161.59120178 C-1.12854363 160.9138888 -1.13010362 160.23657581 -1.13171089 159.53873819 C-1.13572295 157.25244769 -1.13253045 154.96622273 -1.12939453 152.67993164 C-1.13074849 151.04758159 -1.1325284 149.41523185 -1.13470459 147.78288269 C-1.13927988 143.33666086 -1.13748888 138.89046212 -1.1343255 134.44423985 C-1.13180197 129.80067076 -1.13413946 125.15710371 -1.13571167 120.51353455 C-1.13753357 112.71287682 -1.13512672 104.91222855 -1.13037109 97.11157227 C-1.12493034 88.08263169 -1.12668969 79.05371369 -1.1321975 70.02477366 C-1.13673033 62.2855062 -1.13737828 54.54624556 -1.13475883 46.80697721 C-1.13319675 42.17912039 -1.13300037 37.55127419 -1.13629532 32.92341805 C-1.13917643 28.57245511 -1.13719389 24.22152137 -1.13140106 19.8705616 C-1.13007468 18.27013192 -1.13046554 16.6696998 -1.13266373 15.06927109 C-1.13538002 12.89140775 -1.13198817 10.7136391 -1.12698364 8.53578186 C-1.12660662 7.31478318 -1.12622959 6.0937845 -1.12584114 4.83578587 C-1 2 -1 2 0 0 Z " fill="#C8AC5F" transform="translate(505,305)"/>
<path d="M0 0 C0.33 0 0.66 0 1 0 C1 75.57 1 151.14 1 229 C5.29 229 9.58 229 14 229 C14 229.33 14 229.66 14 230 C11.68756208 230.02685412 9.3750373 230.04632841 7.0625 230.0625 C5.77472656 230.07410156 4.48695313 230.08570313 3.16015625 230.09765625 C0 230 0 230 -1 229 C-1.11482821 226.08447156 -1.1639043 223.1919839 -1.17167664 220.27540588 C-1.17802574 219.3489962 -1.18437485 218.42258653 -1.19091636 217.46810383 C-1.2110859 214.33885218 -1.22405386 211.20961131 -1.23706055 208.08032227 C-1.24990422 205.84699269 -1.26315832 203.61366545 -1.27679443 201.38034058 C-1.31249987 195.29576775 -1.3416809 189.21118005 -1.36918616 183.12656522 C-1.38665498 179.33026516 -1.40553569 175.5339749 -1.42493629 171.73768425 C-1.48904727 159.19212299 -1.54901235 146.64655144 -1.60361841 134.10094584 C-1.60656545 133.42398869 -1.60951248 132.74703155 -1.61254883 132.04956055 C-1.61549856 131.37178112 -1.6184483 130.69400169 -1.62148742 129.99568348 C-1.66956686 119.00718565 -1.72764257 108.01876627 -1.79024651 97.03034247 C-1.8543445 85.75958913 -1.91080459 74.48881845 -1.95981437 63.21798748 C-1.98747964 56.88541176 -2.01830806 50.55288913 -2.05682945 44.22036934 C-2.09277169 38.26727711 -2.11918109 32.31421956 -2.1381073 26.36104965 C-2.14671631 24.17040685 -2.15878901 21.97977465 -2.17449379 19.78917122 C-2.19532351 16.80992217 -2.20391541 13.83088874 -2.20927429 10.85157776 C-2.2183088 9.9748403 -2.22734331 9.09810284 -2.2366516 8.19479758 C-2.22827092 2.22827092 -2.22827092 2.22827092 0 0 Z " fill="#E6DDB8" transform="translate(505,550)"/>
<path d="M0 0 C1.98 0 3.96 0 6 0 C5.01 0.66 4.02 1.32 3 2 C-4.48702582 24.46107745 1.34813963 49.32650524 1 73 C50.83 73 100.66 73 152 73 C152 73.33 152 73.66 152 74 C101.84 74 51.68 74 0 74 C0 49.58 0 25.16 0 0 Z " fill="#00013F" transform="translate(75,475)"/>
<path d="M0 0 C0.99 0.33 1.98 0.66 3 1 C-1.9426253 6.94243857 -7.24024958 12.45690757 -12.6875 17.9375 C-13.54150391 18.81212891 -14.39550781 19.68675781 -15.27539062 20.58789062 C-16.50612305 21.82635742 -16.50612305 21.82635742 -17.76171875 23.08984375 C-18.50381592 23.84128662 -19.24591309 24.59272949 -20.01049805 25.36694336 C-22 27 -22 27 -25 27 C-25.061875 27.721875 -25.12375 28.44375 -25.1875 29.1875 C-26.24456647 32.84657625 -28.20550071 34.49211602 -31 37 C-31.99 36.67 -32.98 36.34 -34 36 C-27.22754246 27.28441782 -19.78751841 19.54318643 -11.9375 11.8125 C-10.77361636 10.65867923 -9.61020205 9.50438484 -8.44726562 8.34960938 C-5.63687122 5.56093659 -2.8202728 2.77868058 0 0 Z " fill="#32366C" transform="translate(284,244)"/>
<path d="M0 0 C0.33 1.32 0.66 2.64 1 4 C15.85 4.33 30.7 4.66 46 5 C46 5.66 46 6.32 46 7 C29.83 7 13.66 7 -3 7 C-3 6.01 -3 5.02 -3 4 C-2.34 3.67 -1.68 3.34 -1 3 C-0.67 2.01 -0.34 1.02 0 0 Z " fill="#565987" transform="translate(202,359)"/>
<path d="M0 0 C16.17 0 32.34 0 49 0 C49 0.99 49 1.98 49 3 C32.83 3 16.66 3 0 3 C0 2.01 0 1.02 0 0 Z " fill="#565A88" transform="translate(776,363)"/>
<path d="M0 0 C0.33 0.99 0.66 1.98 1 3 C1.66 3 2.32 3 3 3 C2.979375 3.94875 2.95875 4.8975 2.9375 5.875 C2.77448174 8.90666283 2.77448174 8.90666283 4 11 C4.039992 12.99960012 4.04346799 15.00047242 4 17 C4.33 17 4.66 17 5 17 C5.13277344 18.08539063 5.26554688 19.17078125 5.40234375 20.2890625 C5.58066254 21.73438322 5.75905169 23.17969526 5.9375 24.625 C6.02451172 25.33785156 6.11152344 26.05070312 6.20117188 26.78515625 C6.70782605 30.87591961 7.2889043 34.93842635 8 39 C7.34 39 6.68 39 6 39 C6 43.95 6 48.9 6 54 C5.67 54 5.34 54 5 54 C4.91959473 53.03924561 4.83918945 52.07849121 4.75634766 51.08862305 C2.62792429 25.52051319 2.62792429 25.52051319 0 0 Z " fill="#60638E" transform="translate(660,440)"/>
<path d="M0 0 C0.33 0 0.66 0 1 0 C1.21597562 8.02809389 0.58083144 15.73705969 -0.5 23.6875 C-0.71462891 25.33008789 -0.71462891 25.33008789 -0.93359375 27.00585938 C-1.28280004 29.67146741 -1.63835259 32.33605646 -2 35 C-2.33 35 -2.66 35 -3 35 C-3.33 33.02 -3.66 31.04 -4 29 C-4.33 29 -4.66 29 -5 29 C-5.125 26.125 -5.125 26.125 -5 23 C-4.34 22.34 -3.68 21.68 -3 21 C-2.57277047 17.91082291 -2.57277047 17.91082291 -2.4375 14.4375 C-2.09722222 8.09722222 -2.09722222 8.09722222 -1 7 C-0.63239269 4.67182036 -0.29758419 2.3381615 0 0 Z " fill="#5D608C" transform="translate(796,571)"/>
<path d="M0 0 C13.49468715 -0.59244968 26.64601529 1.21207184 40 3 C40 3.33 40 3.66 40 4 C37.69 4.33 35.38 4.66 33 5 C33 4.34 33 3.68 33 3 C31.205625 3.2784375 31.205625 3.2784375 29.375 3.5625 C22.8873833 4.30987344 16.47756844 3.59892169 10 3 C10 2.67 10 2.34 10 2 C6.7 1.67 3.4 1.34 0 1 C0 0.67 0 0.34 0 0 Z " fill="#5E628E" transform="translate(521,220)"/>
<path d="M0 0 C1.20029908 3.60089725 0.7817151 5.67396858 0.22265625 9.41796875 C-0.05288086 11.29838867 -0.05288086 11.29838867 -0.33398438 13.21679688 C-0.53500502 14.54038756 -0.73617886 15.86395499 -0.9375 17.1875 C-1.13540802 18.5226914 -1.33268119 19.85797706 -1.52929688 21.19335938 C-2.01328378 24.46322213 -2.5037715 27.73197638 -3 31 C-3.33 31 -3.66 31 -4 31 C-4.19456705 29.04235617 -4.38044247 27.08384679 -4.5625 25.125 C-4.71912109 23.48917969 -4.71912109 23.48917969 -4.87890625 21.8203125 C-5 19 -5 19 -4 17 C-3.76939307 15.05631299 -3.53955222 13.11252645 -3.31640625 11.16796875 C-2.74999763 7.28702077 -1.75937846 3.51875693 0 0 Z " fill="#545785" transform="translate(367,422)"/>
<path d="M0 0 C0.33 0 0.66 0 1 0 C1.33 4.29 1.66 8.58 2 13 C2.33 13 2.66 13 3 13 C3 20.92 3 28.84 3 37 C2.67 37 2.34 37 2 37 C0.56479871 24.60857456 -0.29087369 12.47524956 0 0 Z " fill="#676A95" transform="translate(227,558)"/>
<path d="M0 0 C0 0.33 0 0.66 0 1 C-3.18748029 1.02932572 -6.37492528 1.04690739 -9.5625 1.0625 C-10.90538086 1.07506836 -10.90538086 1.07506836 -12.27539062 1.08789062 C-17.29997943 1.10629571 -22.04817291 0.86266398 -27 0 C-27 -0.33 -27 -0.66 -27 -1 C-17.9087342 -3.02028129 -8.9213716 -2.37903243 0 0 Z " fill="#595B8B" transform="translate(523,243)"/>
<path d="M0 0 C4.70637734 7.059566 1.80731867 18.86914772 1 27 C0.67 27 0.34 27 0 27 C-2.66666667 8 -2.66666667 8 0 0 Z " fill="#404576" transform="translate(667,558)"/>
<path d="M0 0 C0.33 0 0.66 0 1 0 C1.33 7.59 1.66 15.18 2 23 C1.67 23 1.34 23 1 23 C0.34 26.96 -0.32 30.92 -1 35 C-1.33 35 -1.66 35 -2 35 C-1.48006053 23.32058808 -0.92071561 11.6558678 0 0 Z " fill="#72769C" transform="translate(665,580)"/>
<path d="M0 0 C3.3 0 6.6 0 10 0 C10 0.33 10 0.66 10 1 C5.95916652 1.98262665 1.9171942 2.96048735 -2.125 3.9375 C-3.83816406 4.35418945 -3.83816406 4.35418945 -5.5859375 4.77929688 C-7.24882812 5.18051758 -7.24882812 5.18051758 -8.9453125 5.58984375 C-9.96125488 5.83597412 -10.97719727 6.08210449 -12.02392578 6.33569336 C-15.00427063 7.00095327 -17.98383543 7.52614364 -21 8 C-20.34 7.67 -19.68 7.34 -19 7 C-19 6.34 -19 5.68 -19 5 C-15.32589215 3.82428549 -11.83070817 3.92633254 -8 4 C-8 3.34 -8 2.68 -8 2 C-5.36 2 -2.72 2 0 2 C0 1.34 0 0.68 0 0 Z " fill="#61648E" transform="translate(444,208)"/>
<path d="M0 0 C1.58409994 0.11487748 3.16728963 0.24234508 4.75 0.375 C6.07257813 0.47941406 6.07257813 0.47941406 7.421875 0.5859375 C9.99066382 0.99850055 11.75841015 1.71160957 14 3 C8.75614911 4.7479503 4.52677733 5.19392201 -1 5 C-0.67 3.35 -0.34 1.7 0 0 Z " fill="#232561" transform="translate(478,837)"/>
<path d="M0 0 C0.66 0.33 1.32 0.66 2 1 C-2.73419171 6.02111242 -7.80057615 11.34550692 -15 12 C-10.58990583 7.14889642 -5.41995647 3.651893 0 0 Z " fill="#414677" transform="translate(324,213)"/>
<path d="M0 0 C0.66 0 1.32 0 2 0 C1.49396008 2.16874252 1.00016187 3.99967627 0 6 C-0.66 6 -1.32 6 -2 6 C-2.103125 6.556875 -2.20625 7.11375 -2.3125 7.6875 C-3.13133577 10.44176578 -4.45853781 12.58727657 -6 15 C-6.66 14.67 -7.32 14.34 -8 14 C-6.67997942 10.42705968 -5.10478612 7.36046508 -3 4.1875 C-2.484375 3.39730469 -1.96875 2.60710937 -1.4375 1.79296875 C-0.7259375 0.90544922 -0.7259375 0.90544922 0 0 Z " fill="#3B3E72" transform="translate(231,305)"/>
<path d="M0 0 C0.97591583 3.38317487 0.85856655 5.5657338 0 9 C-0.66 9 -1.32 9 -2 9 C-2 11.31 -2 13.62 -2 16 C-2.99 16.33 -3.98 16.66 -5 17 C-5 18.65 -5 20.3 -5 22 C-5.99 22.33 -6.98 22.66 -8 23 C-5.47191206 15.28267891 -2.74972528 7.64054098 0 0 Z " fill="#545785" transform="translate(641,718)"/>
<path d="M0 0 C-3.17494007 2.55375615 -6.48103661 4.37447153 -10.125 6.1875 C-11.17945313 6.71730469 -12.23390625 7.24710938 -13.3203125 7.79296875 C-16 9 -16 9 -18 9 C-18 8.34 -18 7.68 -18 7 C-17.34 7 -16.68 7 -16 7 C-16 6.34 -16 5.68 -16 5 C-14.68 5 -13.36 5 -12 5 C-11.67 4.01 -11.34 3.02 -11 2 C-7.55152617 -0.52003857 -4.13426005 -0.15901 0 0 Z " fill="#424578" transform="translate(387,230)"/>
<path d="M0 0 C-1.52012677 5.40489519 -5.27385218 8.98492628 -9 13 C-9.33 11.68 -9.66 10.36 -10 9 C-9.34 9 -8.68 9 -8 9 C-7.7525 7.88625 -7.505 6.7725 -7.25 5.625 C-6 2 -6 2 -4 0.5625 C-2 0 -2 0 0 0 Z " fill="#353868" transform="translate(295,296)"/>
<path d="M0 0 C0.66 0 1.32 0 2 0 C1.42316338 3.89364717 -0.54821777 6.01189041 -3 9 C-3.33 9.99 -3.66 10.98 -4 12 C-6.0625 12.6875 -6.0625 12.6875 -8 13 C-6.44759763 8.03231242 -3.48945219 3.82132943 0 0 Z " fill="#3B3E70" transform="translate(287,331)"/>
<path d="M0 0 C6.20776106 -0.33860515 11.29648027 0.42039979 17 3 C17.66 3.66 18.32 4.32 19 5 C12.42465139 4.37968409 6.33307408 2.85102717 0 1 C0 0.67 0 0.34 0 0 Z " fill="#555686" transform="translate(433,855)"/>
<path d="M0 0 C2.12508244 3.18762365 2.5020163 5.26512223 3 9 C2.34 9 1.68 9 1 9 C1 13.95 1 18.9 1 24 C0.67 24 0.34 24 0 24 C0 16.08 0 8.16 0 0 Z " fill="#454774" transform="translate(665,470)"/>
<path d="M0 0 C-0.99 0 -1.98 0 -3 0 C-3 0.66 -3 1.32 -3 2 C-8.14232468 4.22370797 -12.43167742 4 -18 4 C-15.07089056 2.04726038 -12.91867709 1.24603637 -9.5625 0.3125 C-8.61503906 0.04050781 -7.66757812 -0.23148438 -6.69140625 -0.51171875 C-4.01081763 -0.99803744 -2.53712417 -0.89369149 0 0 Z " fill="#585D8B" transform="translate(444,229)"/>
<path d="M0 0 C0.33 0 0.66 0 1 0 C1.09706112 6.11485027 0.77040851 11.93303301 0 18 C-0.66 17.67 -1.32 17.34 -2 17 C-2.22084624 10.90218999 -2.01167675 5.78357065 0 0 Z " fill="#020540" transform="translate(359,472)"/>
<path d="M0 0 C0.58265625 0.23589844 1.1653125 0.47179687 1.765625 0.71484375 C0.8375 1.47796875 -0.090625 2.24109375 -1.046875 3.02734375 C-3.21713601 4.83332927 -5.29005565 6.66250665 -7.234375 8.71484375 C-7.894375 8.05484375 -8.554375 7.39484375 -9.234375 6.71484375 C-8.16721428 5.51278911 -7.07999163 4.32852042 -5.984375 3.15234375 C-5.38109375 2.49105469 -4.7778125 1.82976562 -4.15625 1.1484375 C-2.234375 -0.28515625 -2.234375 -0.28515625 0 0 Z " fill="#434577" transform="translate(324.234375,291.28515625)"/>
<path d="M0 0 C0.33 0 0.66 0 1 0 C1.98262143 7.20983676 2.6644984 12.55048282 -1 19 C-2.45839897 15.04294544 -1.67906093 11.30168612 -1.0625 7.25 C-0.96259766 6.55261719 -0.86269531 5.85523438 -0.75976562 5.13671875 C-0.51334127 3.42348274 -0.25759045 1.71159275 0 0 Z " fill="#686A95" transform="translate(661,625)"/>
<path d="M0 0 C0.99 0.33 1.98 0.66 3 1 C2.67 5.29 2.34 9.58 2 14 C1.67 14 1.34 14 1 14 C0.67 12.02 0.34 10.04 0 8 C-0.33 8 -0.66 8 -1 8 C-1.125 2.25 -1.125 2.25 0 0 Z " fill="#4F548A" transform="translate(792,592)"/>
<path d="M0 0 C0.66 0 1.32 0 2 0 C3.25664978 2.90600261 4 4.79604584 4 8 C4.66 8.33 5.32 8.66 6 9 C7.125 11.0625 7.125 11.0625 8 13 C7.34 13.66 6.68 14.32 6 15 C4.98965502 13.25595212 3.99207578 11.50450439 3 9.75 C2.1646875 8.28820312 2.1646875 8.28820312 1.3125 6.796875 C0 4 0 4 0 0 Z " fill="#494B7D" transform="translate(619,309)"/>
<path d="M0 0 C1.61949011 2.57213134 2.04408751 3.67669159 1.625 6.75 C1.41875 7.4925 1.2125 8.235 1 9 C1.66 9 2.32 9 3 9 C3 11.97 3 14.94 3 18 C1.17261373 14.34522746 0.46016821 11.83892425 -0.1875 7.875 C-0.36667969 6.82054687 -0.54585937 5.76609375 -0.73046875 4.6796875 C-1 2 -1 2 0 0 Z " fill="#5D608E" transform="translate(235,621)"/>
<path d="M0 0 C0.33 0 0.66 0 1 0 C0.64989059 8.19256018 0.64989059 8.19256018 -2.0625 11.5625 C-2.701875 12.036875 -3.34125 12.51125 -4 13 C-4.33 12.34 -4.66 11.68 -5 11 C-4.00390625 8.3984375 -4.00390625 8.3984375 -2.5625 5.375 C-2.08941406 4.37210937 -1.61632812 3.36921875 -1.12890625 2.3359375 C-0.75636719 1.56507813 -0.38382813 0.79421875 0 0 Z " fill="#4C4E7D" transform="translate(205,350)"/>
<path d="M0 0 C1.65 0.33 3.3 0.66 5 1 C5 1.66 5 2.32 5 3 C-1.625 6 -1.625 6 -5 6 C-5 5.34 -5 4.68 -5 4 C-3.68 4 -2.36 4 -1 4 C-0.67 2.68 -0.34 1.36 0 0 Z " fill="#393C75" transform="translate(614,844)"/>
<path d="M0 0 C0 3.10551666 -0.5393715 4.35261084 -2 7 C-2.66 7 -3.32 7 -4 7 C-4 7.66 -4 8.32 -4 9 C-5.32 9.33 -6.64 9.66 -8 10 C-6.34908222 5.70761377 -3.26245434 3.1206085 0 0 Z " fill="#5A5E8C" transform="translate(314,299)"/>
<path d="M0 0 C7.45937249 0.61142397 7.45937249 0.61142397 10 2.4375 C11 4 11 4 11 6 C6.49197399 4.74194623 3.5087188 3.09592835 0 0 Z " fill="#3E4073" transform="translate(653,238)"/>
<path d="M0 0 C0.66 0 1.32 0 2 0 C1.91306859 1.79258558 1.80489496 3.58415144 1.6875 5.375 C1.62949219 6.37273437 1.57148438 7.37046875 1.51171875 8.3984375 C1.34285156 9.25695312 1.17398438 10.11546875 1 11 C0.01 11.66 -0.98 12.32 -2 13 C-1.85769192 11.58297487 -1.71099254 10.1663904 -1.5625 8.75 C-1.48128906 7.96109375 -1.40007812 7.1721875 -1.31640625 6.359375 C-1.02365007 4.17635361 -0.57935581 2.1226818 0 0 Z " fill="#454979" transform="translate(237,442)"/>
<path d="M0 0 C0.33 0.66 0.66 1.32 1 2 C-4.28 1.67 -9.56 1.34 -15 1 C-15 0.67 -15 0.34 -15 0 C-9.70936543 -0.83536335 -5.30788029 -1.19156496 0 0 Z " fill="#636793" transform="translate(480,862)"/>
<path d="M0 0 C0.66 0 1.32 0 2 0 C1.46884894 4.51478398 -0.36620292 7.34666857 -3 11 C-3.33 9.68 -3.66 8.36 -4 7 C-3.34 7 -2.68 7 -2 7 C-2 5.68 -2 4.36 -2 3 C-1.34 3 -0.68 3 0 3 C0 2.01 0 1.02 0 0 Z " fill="#3E4074" transform="translate(745,736)"/>
<path d="M0 0 C0.99 0 1.98 0 3 0 C2.71758359 1.46015291 2.42373386 2.91809793 2.125 4.375 C1.96257813 5.18710937 1.80015625 5.99921875 1.6328125 6.8359375 C1 9 1 9 -1 11 C-1.33 9.35 -1.66 7.7 -2 6 C-1.34 6 -0.68 6 0 6 C0 4.02 0 2.04 0 0 Z " fill="#4D5082" transform="translate(773,677)"/>
<path d="M0 0 C0.33 0 0.66 0 1 0 C0.03644647 11.52164009 0.03644647 11.52164009 -1 17 C-1.33 17 -1.66 17 -2 17 C-2.19658808 15.58456585 -2.38187546 14.16755969 -2.5625 12.75 C-2.66691406 11.96109375 -2.77132812 11.1721875 -2.87890625 10.359375 C-3.08387243 6.36584032 -1.86359591 3.47871237 0 0 Z " fill="#62668F" transform="translate(792,607)"/>
<path d="M0 0 C0.66 1.32 1.32 2.64 2 4 C1.67 4.33 1.34 4.66 1 5 C0.71681146 7.84087552 0.55149787 10.68165215 0.37890625 13.53125 C0.25386719 14.3459375 0.12882813 15.160625 0 16 C-0.66 16.33 -1.32 16.66 -2 17 C-1.85899143 14.72886197 -1.71203245 12.45809275 -1.5625 10.1875 C-1.48128906 8.92292969 -1.40007812 7.65835937 -1.31640625 6.35546875 C-1 3 -1 3 0 0 Z " fill="#020647" transform="translate(235,456)"/>
<path d="M0 0 C-3.16240582 2.10827055 -4.50657469 2.33817465 -8.1875 2.625 C-9.53908203 2.73714844 -9.53908203 2.73714844 -10.91796875 2.8515625 C-11.94857422 2.92503906 -11.94857422 2.92503906 -13 3 C-11.68 2.67 -10.36 2.34 -9 2 C-9 1.34 -9 0.68 -9 0 C-5.93109813 -1.53445094 -3.29905734 -0.54984289 0 0 Z " fill="#555786" transform="translate(581,858)"/>
<path d="M0 0 C0.66 0.33 1.32 0.66 2 1 C-1.3995585 5.73509934 -1.3995585 5.73509934 -4.125 6.9375 C-4.74375 6.958125 -5.3625 6.97875 -6 7 C-6.66 6.34 -7.32 5.68 -8 5 C-6.71475739 4.13619741 -5.42157581 3.28419631 -4.125 2.4375 C-3.04605469 1.72400391 -3.04605469 1.72400391 -1.9453125 0.99609375 C-1.30335938 0.66738281 -0.66140625 0.33867188 0 0 Z " fill="#434777" transform="translate(572,823)"/>
<path d="M0 0 C1 2 1 2 0.4375 4.5625 C-1 7 -1 7 -4.125 7.8125 C-5.548125 7.9053125 -5.548125 7.9053125 -7 8 C-6.02133662 6.85373678 -5.04205413 5.70800212 -4.0625 4.5625 C-3.51722656 3.92441406 -2.97195313 3.28632812 -2.41015625 2.62890625 C-1.63204305 1.73008851 -0.84063472 0.84063472 0 0 Z " fill="#555A8B" transform="translate(595,803)"/>
<path d="M0 0 C0.33 0.99 0.66 1.98 1 3 C1.66 3 2.32 3 3 3 C3.92844389 7.33273814 3.92844389 10.66726186 3 15 C2.67 15 2.34 15 2 15 C1.66223316 13.2508503 1.32996329 11.50063855 1 9.75 C0.814375 8.77546875 0.62875 7.8009375 0.4375 6.796875 C0 4 0 4 0 0 Z " fill="#5B5D8C" transform="translate(656,416)"/>
<path d="M0 0 C0.66 0 1.32 0 2 0 C2.66 1.98 3.32 3.96 4 6 C4.66 6 5.32 6 6 6 C5.67 7.32 5.34 8.64 5 10 C3.02 7.03 1.04 4.06 -1 1 C-0.67 0.67 -0.34 0.34 0 0 Z " fill="#494B7B" transform="translate(283,745)"/>
<path d="M0 0 C0.99 0 1.98 0 3 0 C2.25 6.625 2.25 6.625 0 10 C-1.2380014 6.42355152 -0.74926071 3.66305234 0 0 Z " fill="#4E5181" transform="translate(781,651)"/>
<path d="M0 0 C0.6875 1.625 0.6875 1.625 1 4 C-0.4375 7.25 -0.4375 7.25 -2 10 C-2.66 9.67 -3.32 9.34 -4 9 C-2.94124926 5.59687262 -1.99097846 2.98646769 0 0 Z " fill="#474878" transform="translate(623,762)"/>
<path d="M0 0 C0.99 0.33 1.98 0.66 3 1 C2.67 1.99 2.34 2.98 2 4 C2.99 4.33 3.98 4.66 5 5 C4.67 6.32 4.34 7.64 4 9 C4.66 9.33 5.32 9.66 6 10 C5.34 10.66 4.68 11.32 4 12 C3.3291288 10.3767313 2.66342971 8.75132422 2 7.125 C1.62875 6.22007812 1.2575 5.31515625 0.875 4.3828125 C0 2 0 2 0 0 Z " fill="#5A5C8D" transform="translate(248,676)"/>
<path d="M0 0 C0.33 0 0.66 0 1 0 C1.08107583 1.93681161 1.13922475 3.8745934 1.1875 5.8125 C1.23970703 7.43091797 1.23970703 7.43091797 1.29296875 9.08203125 C1 12 1 12 -0.51171875 13.88671875 C-1.00285156 14.25410156 -1.49398437 14.62148438 -2 15 C-1.38487182 9.99109914 -0.7282448 4.99367864 0 0 Z " fill="#636690" transform="translate(656,657)"/>
<path d="M0 0 C3.63 1.65 7.26 3.3 11 5 C10.01 5.66 9.02 6.32 8 7 C8 6.34 8 5.68 8 5 C7.01 5.33 6.02 5.66 5 6 C5 5.34 5 4.68 5 4 C4.360625 3.896875 3.72125 3.79375 3.0625 3.6875 C2.381875 3.460625 1.70125 3.23375 1 3 C0.67 2.01 0.34 1.02 0 0 Z " fill="#4F537E" transform="translate(637,247)"/>
<path d="M0 0 C0.33 0 0.66 0 1 0 C1 2.97 1 5.94 1 9 C0.34 9 -0.32 9 -1 9 C-1 10.65 -1 12.3 -1 14 C-1.33 14 -1.66 14 -2 14 C-2.1799928 8.78020872 -1.97094808 4.92737019 0 0 Z " fill="#474A79" transform="translate(664,610)"/>
<path d="M0 0 C1.45606519 4.52092968 0.27032841 7.51648796 -1 12 C-2.61949011 9.42786866 -3.04408751 8.32330841 -2.625 5.25 C-2.41875 4.5075 -2.2125 3.765 -2 3 C-1.34 3 -0.68 3 0 3 C0 2.01 0 1.02 0 0 Z " fill="#5D6089" transform="translate(786,639)"/>
<path d="M0 0 C0.33 0 0.66 0 1 0 C0.67 4.95 0.34 9.9 0 15 C-0.33 15 -0.66 15 -1 15 C-1 12.03 -1 9.06 -1 6 C-1.66 5.67 -2.32 5.34 -3 5 C-2.01 4.67 -1.02 4.34 0 4 C0 2.68 0 1.36 0 0 Z " fill="#7E83A9" transform="translate(362,455)"/>
<path d="M0 0 C0.99 0 1.98 0 3 0 C1.95125002 2.62187494 1.35068687 3.79371361 -1.125 5.25 C-1.74375 5.4975 -2.3625 5.745 -3 6 C-2.42655063 3.13275314 -2.1385485 2.1385485 0 0 Z " fill="#333669" transform="translate(331,283)"/>
<path d="M0 0 C0 0.66 0 1.32 0 2 C-1.96147874 3.38938077 -3.96166576 4.7260411 -6 6 C-6.66 5.67 -7.32 5.34 -8 5 C-7 2 -7 2 -5.125 0.8125 C-3 0 -3 0 0 0 Z " fill="#494B7B" transform="translate(364,241)"/>
<path d="M0 0 C0.66 0 1.32 0 2 0 C2.33 0.99 2.66 1.98 3 3 C4.29355827 4.37195574 5.62298702 5.71182656 7 7 C4 7 4 7 2.61328125 5.6875 C1.40885417 4.125 0.20442708 2.5625 -1 1 C-0.67 0.67 -0.34 0.34 0 0 Z " fill="#4D4D7E" transform="translate(306,775)"/>
<path d="M0 0 C0.99 0 1.98 0 3 0 C2.01 2.97 1.02 5.94 0 9 C-0.66 7.68 -1.32 6.36 -2 5 C-1.67 5 -1.34 5 -1 5 C-0.67 3.35 -0.34 1.7 0 0 Z " fill="#525381" transform="translate(769,689)"/>
<path d="M0 0 C0.66 0.33 1.32 0.66 2 1 C1.67 2.98 1.34 4.96 1 7 C0.01 6.34 -0.98 5.68 -2 5 C-2 3.68 -2 2.36 -2 1 C-1.34 0.67 -0.68 0.34 0 0 Z " fill="#363D78" transform="translate(376,378)"/>
<path d="M0 0 C0.66 0.99 1.32 1.98 2 3 C1.1875 4.9375 1.1875 4.9375 0 7 C-0.99 7.33 -1.98 7.66 -3 8 C-1.125 2.25 -1.125 2.25 0 0 Z " fill="#454778" transform="translate(264,368)"/>
<path d="M0 0 C2.21773977 1.10886989 3.47698387 2.0418364 5 4 C4.6875 6.1875 4.6875 6.1875 4 8 C0 3.375 0 3.375 0 0 Z " fill="#3C3F73" transform="translate(747,317)"/>
<path d="M0 0 C1 2 1 2 0.375 4.0625 C-1 6 -1 6 -3.625 6.75 C-4.800625 6.87375 -4.800625 6.87375 -6 7 C-4.02 4.69 -2.04 2.38 0 0 Z " fill="#3D4172" transform="translate(305,309)"/>
<path d="M0 0 C0.66 0.33 1.32 0.66 2 1 C-1.32307692 4.93846154 -1.32307692 4.93846154 -4.75 5.25 C-5.4925 5.1675 -6.235 5.085 -7 5 C-5.47058649 1.94117299 -3.05780454 1.31048766 0 0 Z " fill="#585C8B" transform="translate(356,194)"/>
<path d="M0 0 C0.66 0.33 1.32 0.66 2 1 C0.25 6.75 0.25 6.75 -2 9 C-2.33 7.35 -2.66 5.7 -3 4 C-2.01 4 -1.02 4 0 4 C0 2.68 0 1.36 0 0 Z " fill="#5D5F89" transform="translate(252,353)"/>
</svg>
